<?xml version="1.0" standalone="no"?>
<!DOCTYPE svg PUBLIC "-//W3C//DTD SVG 20010904//EN"
 "http://www.w3.org/TR/2001/REC-SVG-20010904/DTD/svg10.dtd">
<svg version="1.0" xmlns="http://www.w3.org/2000/svg"
 width="512.000000pt" height="512.000000pt" viewBox="0 0 512.000000 512.000000"
 preserveAspectRatio="xMidYMid meet">
<metadata>
Created by potrace 1.14, written by Peter Selinger 2001-2017
</metadata>
<g transform="translate(0.000000,512.000000) scale(0.100000,-0.100000)"
fill="#000000" stroke="none">
<path d="M1350 3663 c0 -899 -12 -1199 -61 -1558 -72 -533 -232 -917 -505
-1213 -75 -82 -76 -83 -59 -108 9 -14 22 -28 30 -30 19 -8 137 90 246 202 220
228 366 500 455 853 18 74 35 136 38 138 7 7 121 -139 190 -244 82 -125 148
-262 178 -370 26 -91 49 -115 118 -117 53 -1 86 20 111 71 43 88 12 234 -76
368 -84 126 -266 280 -453 381 -50 27 -53 31 -47 59 17 88 45 353 55 520 18
297 3 258 133 366 62 52 183 164 270 249 146 142 162 155 195 155 21 1 52 4
70 9 l32 8 0 -1159 0 -1158 -34 -19 c-36 -19 -83 -63 -75 -70 16 -15 271 -176
278 -176 6 0 31 29 56 65 l47 65 918 2 919 3 23 23 c18 18 20 26 12 40 -11 18
-184 177 -271 250 l-52 43 -91 -121 -91 -120 -699 0 -700 0 0 490 0 490 615 0
615 0 0 -111 0 -112 67 6 c44 4 87 17 123 34 l55 28 3 555 3 555 70 33 c39 18
69 37 67 42 -2 5 -59 59 -128 121 l-124 111 -69 -76 -69 -76 -614 0 -614 0 2
373 3 372 876 3 876 2 29 27 28 26 -49 45 c-89 80 -285 242 -294 242 -4 0 -48
-52 -97 -115 l-88 -115 -607 0 -607 0 -156 89 -156 90 -2 -379 -3 -379 -153
96 c-91 56 -157 92 -163 86 -5 -5 -38 -65 -75 -133 -83 -157 -276 -491 -281
-486 -3 2 -1 276 3 609 l7 605 36 11 c37 11 83 52 94 84 4 9 5 17 3 17 -1 0
-83 9 -182 20 -98 11 -185 20 -191 20 -10 0 -13 -148 -13 -707z m2390 -1058
l0 -435 -615 0 -615 0 0 435 0 435 615 0 615 0 0 -435z"/>
<path d="M1017 3398 c-8 -159 -29 -278 -73 -408 -43 -128 -81 -199 -146 -267
-49 -52 -87 -121 -88 -156 0 -32 30 -84 56 -96 133 -60 300 98 348 331 34 163
30 385 -10 603 -21 114 -22 115 -53 115 l-28 0 -6 -122z"/>
</g>
</svg>
